<?xml version="1.0" encoding="utf-8"?>
<!-- Generator: Adobe Illustrator 16.0.0, SVG Export Plug-In . SVG Version: 6.00 Build 0)  -->
<!DOCTYPE svg PUBLIC "-//W3C//DTD SVG 1.1//EN" "http://www.w3.org/Graphics/SVG/1.1/DTD/svg11.dtd">
<svg version="1.1" id="Layer_1" xmlns="http://www.w3.org/2000/svg" xmlns:xlink="http://www.w3.org/1999/xlink" x="0px" y="0px"
	 width="730px" height="450px" viewBox="0 0 730 450" enable-background="new 0 0 730 450" xml:space="preserve">
<g>
	<rect fill="#B4E0DF" stroke="#49C6E5" stroke-width="3" stroke-miterlimit="10" width="730" height="450"/>
	<g>
		<path fill="#49C6E5" d="M727,3v444H3V3H727 M730,0H0v450h730V0L730,0z"/>
	</g>
	<line fill="none" stroke="#49C6E5" stroke-width="3" stroke-miterlimit="10" x1="0" y1="228.237" x2="730" y2="228.237"/>
	<line fill="none" stroke="#49C6E5" stroke-width="3" stroke-miterlimit="10" x1="0" y1="221.763" x2="730" y2="221.763"/>
	<line fill="none" stroke="#49C6E5" stroke-width="3" stroke-miterlimit="10" x1="0" y1="215.288" x2="730" y2="215.288"/>
	<line fill="none" stroke="#49C6E5" stroke-width="3" stroke-miterlimit="10" x1="0" y1="208.813" x2="730" y2="208.813"/>
	<line fill="none" stroke="#49C6E5" stroke-width="3" stroke-miterlimit="10" x1="0" y1="202.338" x2="730" y2="202.338"/>
	<line fill="none" stroke="#49C6E5" stroke-width="3" stroke-miterlimit="10" x1="0" y1="195.863" x2="730" y2="195.863"/>
	<line fill="none" stroke="#49C6E5" stroke-width="3" stroke-miterlimit="10" x1="0" y1="189.389" x2="730" y2="189.389"/>
	<line fill="none" stroke="#49C6E5" stroke-width="3" stroke-miterlimit="10" x1="0" y1="182.914" x2="730" y2="182.914"/>
	<line fill="none" stroke="#49C6E5" stroke-width="3" stroke-miterlimit="10" x1="0" y1="176.439" x2="730" y2="176.439"/>
	<line fill="none" stroke="#49C6E5" stroke-width="3" stroke-miterlimit="10" x1="0" y1="169.964" x2="730" y2="169.964"/>
	<line fill="none" stroke="#49C6E5" stroke-width="3" stroke-miterlimit="10" x1="0" y1="163.489" x2="730" y2="163.489"/>
	<line fill="none" stroke="#49C6E5" stroke-width="3" stroke-miterlimit="10" x1="0" y1="157.014" x2="730" y2="157.014"/>
	<line fill="none" stroke="#49C6E5" stroke-width="3" stroke-miterlimit="10" x1="0" y1="150.54" x2="730" y2="150.54"/>
	<line fill="none" stroke="#49C6E5" stroke-width="3" stroke-miterlimit="10" x1="0" y1="144.065" x2="730" y2="144.065"/>
	<line fill="none" stroke="#49C6E5" stroke-width="3" stroke-miterlimit="10" x1="0" y1="137.59" x2="730" y2="137.59"/>
	<line fill="none" stroke="#49C6E5" stroke-width="3" stroke-miterlimit="10" x1="0" y1="131.115" x2="730" y2="131.115"/>
	<line fill="none" stroke="#49C6E5" stroke-width="3" stroke-miterlimit="10" x1="0" y1="124.64" x2="730" y2="124.64"/>
	<line fill="none" stroke="#49C6E5" stroke-width="3" stroke-miterlimit="10" x1="0" y1="118.166" x2="730" y2="118.166"/>
	<line fill="none" stroke="#49C6E5" stroke-width="3" stroke-miterlimit="10" x1="0" y1="344.784" x2="730" y2="344.784"/>
	<line fill="none" stroke="#49C6E5" stroke-width="3" stroke-miterlimit="10" x1="0" y1="338.31" x2="730" y2="338.31"/>
	<line fill="none" stroke="#49C6E5" stroke-width="3" stroke-miterlimit="10" x1="0" y1="331.835" x2="730" y2="331.835"/>
	<line fill="none" stroke="#49C6E5" stroke-width="3" stroke-miterlimit="10" x1="0" y1="325.359" x2="730" y2="325.359"/>
	<line fill="none" stroke="#49C6E5" stroke-width="3" stroke-miterlimit="10" x1="0" y1="318.885" x2="730" y2="318.885"/>
	<line fill="none" stroke="#49C6E5" stroke-width="3" stroke-miterlimit="10" x1="0" y1="312.41" x2="730" y2="312.41"/>
	<line fill="none" stroke="#49C6E5" stroke-width="3" stroke-miterlimit="10" x1="0" y1="305.936" x2="730" y2="305.936"/>
	<line fill="none" stroke="#49C6E5" stroke-width="3" stroke-miterlimit="10" x1="0" y1="299.46" x2="730" y2="299.46"/>
	<line fill="none" stroke="#49C6E5" stroke-width="3" stroke-miterlimit="10" x1="0" y1="292.985" x2="730" y2="292.985"/>
	<line fill="none" stroke="#49C6E5" stroke-width="3" stroke-miterlimit="10" x1="0" y1="286.511" x2="730" y2="286.511"/>
	<line fill="none" stroke="#49C6E5" stroke-width="3" stroke-miterlimit="10" x1="0" y1="280.036" x2="730" y2="280.036"/>
	<line fill="none" stroke="#49C6E5" stroke-width="3" stroke-miterlimit="10" x1="0" y1="273.562" x2="730" y2="273.562"/>
	<line fill="none" stroke="#49C6E5" stroke-width="3" stroke-miterlimit="10" x1="0" y1="267.086" x2="730" y2="267.086"/>
	<line fill="none" stroke="#49C6E5" stroke-width="3" stroke-miterlimit="10" x1="0" y1="260.611" x2="730" y2="260.611"/>
	<line fill="none" stroke="#49C6E5" stroke-width="3" stroke-miterlimit="10" x1="0" y1="254.137" x2="730" y2="254.137"/>
	<line fill="none" stroke="#49C6E5" stroke-width="3" stroke-miterlimit="10" x1="0" y1="247.662" x2="730" y2="247.662"/>
	<line fill="none" stroke="#49C6E5" stroke-width="3" stroke-miterlimit="10" x1="0" y1="241.188" x2="730" y2="241.188"/>
	<line fill="none" stroke="#49C6E5" stroke-width="3" stroke-miterlimit="10" x1="0" y1="234.712" x2="730" y2="234.712"/>
	<line fill="none" stroke="#49C6E5" stroke-width="3" stroke-miterlimit="10" x1="0" y1="441.906" x2="730" y2="441.906"/>
	<line fill="none" stroke="#49C6E5" stroke-width="3" stroke-miterlimit="10" x1="0" y1="435.432" x2="730" y2="435.432"/>
	<line fill="none" stroke="#49C6E5" stroke-width="3" stroke-miterlimit="10" x1="0" y1="428.957" x2="730" y2="428.957"/>
	<line fill="none" stroke="#49C6E5" stroke-width="3" stroke-miterlimit="10" x1="0" y1="422.482" x2="730" y2="422.482"/>
	<line fill="none" stroke="#49C6E5" stroke-width="3" stroke-miterlimit="10" x1="0" y1="416.007" x2="730" y2="416.007"/>
	<line fill="none" stroke="#49C6E5" stroke-width="3" stroke-miterlimit="10" x1="0" y1="409.532" x2="730" y2="409.532"/>
	<line fill="none" stroke="#49C6E5" stroke-width="3" stroke-miterlimit="10" x1="0" y1="403.058" x2="730" y2="403.058"/>
	<line fill="none" stroke="#49C6E5" stroke-width="3" stroke-miterlimit="10" x1="0" y1="396.583" x2="730" y2="396.583"/>
	<line fill="none" stroke="#49C6E5" stroke-width="3" stroke-miterlimit="10" x1="0" y1="390.107" x2="730" y2="390.107"/>
	<line fill="none" stroke="#49C6E5" stroke-width="3" stroke-miterlimit="10" x1="0" y1="383.633" x2="730" y2="383.633"/>
	<line fill="none" stroke="#49C6E5" stroke-width="3" stroke-miterlimit="10" x1="0" y1="377.158" x2="730" y2="377.158"/>
	<line fill="none" stroke="#49C6E5" stroke-width="3" stroke-miterlimit="10" x1="0" y1="370.684" x2="730" y2="370.684"/>
	<line fill="none" stroke="#49C6E5" stroke-width="3" stroke-miterlimit="10" x1="0" y1="364.209" x2="730" y2="364.209"/>
	<line fill="none" stroke="#49C6E5" stroke-width="3" stroke-miterlimit="10" x1="0" y1="357.733" x2="730" y2="357.733"/>
	<line fill="none" stroke="#49C6E5" stroke-width="3" stroke-miterlimit="10" x1="0" y1="351.259" x2="730" y2="351.259"/>
	<line fill="none" stroke="#49C6E5" stroke-width="3" stroke-miterlimit="10" x1="0" y1="111.69" x2="730" y2="111.69"/>
	<line fill="none" stroke="#49C6E5" stroke-width="3" stroke-miterlimit="10" x1="0" y1="105.216" x2="730" y2="105.216"/>
	<line fill="none" stroke="#49C6E5" stroke-width="3" stroke-miterlimit="10" x1="0" y1="98.741" x2="730" y2="98.741"/>
	<line fill="none" stroke="#49C6E5" stroke-width="3" stroke-miterlimit="10" x1="0" y1="92.266" x2="730" y2="92.266"/>
	<line fill="none" stroke="#49C6E5" stroke-width="3" stroke-miterlimit="10" x1="0" y1="85.792" x2="730" y2="85.792"/>
	<line fill="none" stroke="#49C6E5" stroke-width="3" stroke-miterlimit="10" x1="0" y1="79.316" x2="730" y2="79.316"/>
	<line fill="none" stroke="#49C6E5" stroke-width="3" stroke-miterlimit="10" x1="0" y1="72.842" x2="730" y2="72.842"/>
	<line fill="none" stroke="#49C6E5" stroke-width="3" stroke-miterlimit="10" x1="0" y1="66.367" x2="730" y2="66.367"/>
	<line fill="none" stroke="#49C6E5" stroke-width="3" stroke-miterlimit="10" x1="0" y1="59.892" x2="730" y2="59.892"/>
	<line fill="none" stroke="#49C6E5" stroke-width="3" stroke-miterlimit="10" x1="0" y1="53.417" x2="730" y2="53.417"/>
	<line fill="none" stroke="#49C6E5" stroke-width="3" stroke-miterlimit="10" x1="0" y1="46.942" x2="730" y2="46.942"/>
	<line fill="none" stroke="#49C6E5" stroke-width="3" stroke-miterlimit="10" x1="0" y1="40.468" x2="730" y2="40.468"/>
	<line fill="none" stroke="#49C6E5" stroke-width="3" stroke-miterlimit="10" x1="0" y1="33.993" x2="730" y2="33.993"/>
	<line fill="none" stroke="#49C6E5" stroke-width="3" stroke-miterlimit="10" x1="0" y1="27.518" x2="730" y2="27.518"/>
	<line fill="none" stroke="#49C6E5" stroke-width="3" stroke-miterlimit="10" x1="0" y1="21.043" x2="730" y2="21.043"/>
	<line fill="none" stroke="#49C6E5" stroke-width="3" stroke-miterlimit="10" x1="0" y1="14.568" x2="730" y2="14.568"/>
	<line fill="none" stroke="#49C6E5" stroke-width="3" stroke-miterlimit="10" x1="0" y1="8.094" x2="730" y2="8.094"/>
</g>
</svg>
